<svg width="44" height="44" viewBox="0 0 44 44" fill="none" xmlns="http://www.w3.org/2000/svg">
<circle cx="22" cy="22" r="22" fill="#D2F2D0"/>
<path fill-rule="evenodd" clip-rule="evenodd" d="M23.4286 16.2857C23.4286 18.6526 21.5098 20.5714 19.1429 20.5714C16.7759 20.5714 14.8571 18.6526 14.8571 16.2857C14.8571 13.9188 16.7759 12 19.1429 12C21.5098 12 23.4286 13.9188 23.4286 16.2857ZM27.3571 22.7143C27.9489 22.7143 28.4286 23.194 28.4286 23.7857V26.2857H30.9286C31.5203 26.2857 32 26.7654 32 27.3571C32 27.9489 31.5203 28.4286 30.9286 28.4286H28.4286V30.9286C28.4286 31.5203 27.9489 32 27.3571 32C26.7654 32 26.2857 31.5203 26.2857 30.9286V28.4286H23.7857C23.194 28.4286 22.7143 27.9489 22.7143 27.3571C22.7143 26.7654 23.194 26.2857 23.7857 26.2857H26.2857V23.7857C26.2857 23.194 26.7654 22.7143 27.3571 22.7143ZM19.1429 22C21.2762 22 23.1912 22.9352 24.5 24.4181V24.5H23.7857C22.2078 24.5 20.9286 25.7792 20.9286 27.3571C20.9286 28.4329 21.523 29.3697 22.4014 29.8571H12.7143C12.3198 29.8571 12 29.5373 12 29.1429C12 25.1979 15.198 22 19.1429 22Z" fill="#1DBF12"/>
</svg>
