<svg width="44" height="44" viewBox="0 0 44 44" fill="none" xmlns="http://www.w3.org/2000/svg">
<circle cx="22" cy="22" r="22" fill="#F4F7FE"/>
<path fill-rule="evenodd" clip-rule="evenodd" d="M16.4489 17.9656C17.1074 17.9656 17.7389 17.704 18.2046 17.2384C18.6702 16.7728 18.9318 16.1413 18.9318 15.4828C18.9318 14.8243 18.6702 14.1928 18.2046 13.7272C17.7389 13.2616 17.1074 13 16.4489 13C15.7907 13 15.1593 13.2615 14.6938 13.727C14.2284 14.1925 13.9669 14.8238 13.9669 15.4821C13.9669 16.1404 14.2284 16.7717 14.6938 17.2372C15.1593 17.7027 15.7907 17.9656 16.4489 17.9656ZM27.5525 17.9656C28.211 17.9656 28.8425 17.704 29.3081 17.2384C29.7737 16.7728 30.0353 16.1413 30.0353 15.4828C30.0353 14.8243 29.7737 14.1928 29.3081 13.7272C28.8425 13.2616 28.211 13 27.5525 13C26.8942 13 26.2629 13.2615 25.7974 13.727C25.3319 14.1925 25.0704 14.8238 25.0704 15.4821C25.0704 16.1404 25.3319 16.7717 25.7974 17.2372C26.2629 17.7027 26.8942 17.9656 27.5525 17.9656ZM27.5525 18.4823C26.5561 18.4808 25.5883 18.8153 24.8056 19.4317C25.3987 19.9426 25.8405 20.6062 26.0829 21.3505C26.3253 22.0948 26.359 22.8913 26.1805 23.6534H31.2764C31.4683 23.6534 31.6523 23.5772 31.788 23.4415C31.9238 23.3058 32 23.1217 32 22.9298C32 21.7503 31.5314 20.619 30.6974 19.7849C29.8633 18.9509 28.732 18.4823 27.5525 18.4823ZM16.4489 18.4823C17.4453 18.4808 18.4131 18.8153 19.1959 19.4317C18.6028 19.9426 18.161 20.6062 17.9186 21.3505C17.6762 22.0948 17.6424 22.8913 17.821 23.6534H12.7236C12.5317 23.6534 12.3477 23.5772 12.2119 23.4415C12.0762 23.3058 12 23.1217 12 22.9298C12.0002 22.3458 12.1154 21.7675 12.3391 21.2279C12.5628 20.6884 12.8905 20.1982 13.3037 19.7854C13.7168 19.3725 14.2072 19.0451 14.7469 18.8217C15.2865 18.5984 15.8649 18.4836 16.4489 18.4838V18.4823ZM22.0007 25.163C22.3267 25.163 22.6494 25.0988 22.9506 24.974C23.2517 24.8493 23.5253 24.6665 23.7558 24.436C23.9863 24.2055 24.1691 23.9319 24.2939 23.6307C24.4186 23.3296 24.4828 23.0068 24.4828 22.6809C24.4828 22.3549 24.4186 22.0322 24.2939 21.731C24.1691 21.4299 23.9863 21.1563 23.7558 20.9258C23.5253 20.6953 23.2517 20.5125 22.9506 20.3877C22.6494 20.263 22.3267 20.1988 22.0007 20.1988C21.3424 20.1988 20.7111 20.4603 20.2456 20.9258C19.7801 21.3913 19.5186 22.0226 19.5186 22.6809C19.5186 23.3392 19.7801 23.9705 20.2456 24.436C20.7111 24.9015 21.3424 25.163 22.0007 25.163ZM17.5532 30.1271C17.5532 29.5431 17.6683 28.9648 17.8918 28.4252C18.1153 27.8856 18.4429 27.3953 18.8559 26.9823C19.2689 26.5693 19.7591 26.2417 20.2987 26.0182C20.8383 25.7947 21.4167 25.6796 22.0007 25.6796C22.5848 25.6796 23.1631 25.7947 23.7027 26.0182C24.2423 26.2417 24.7326 26.5693 25.1456 26.9823C25.5586 27.3953 25.8862 27.8856 26.1097 28.4252C26.3332 28.9648 26.4482 29.5431 26.4482 30.1271C26.4482 30.3191 26.372 30.5031 26.2363 30.6388C26.1006 30.7745 25.9165 30.8508 25.7246 30.8508H18.2769C18.0849 30.8508 17.9009 30.7745 17.7652 30.6388C17.6295 30.5031 17.5532 30.3191 17.5532 30.1271Z" fill="#345976"/>
</svg>
