<svg width="44" height="44" viewBox="0 0 44 44" fill="none" xmlns="http://www.w3.org/2000/svg">
<circle cx="22" cy="22" r="22" fill="#F6DEDE"/>
<path fill-rule="evenodd" clip-rule="evenodd" d="M23.4277 16.2917C23.4277 19.5906 19.8565 21.6524 16.9996 20.003C15.6738 19.2374 14.8569 17.8228 14.8569 16.2917C14.8569 12.9929 18.4281 10.9311 21.285 12.5805C22.6108 13.3461 23.4277 14.7607 23.4277 16.2917ZM30.9271 26.291C31.7518 26.291 32.2672 27.1838 31.8549 27.898C31.6635 28.2294 31.3099 28.4337 30.9271 28.4337H23.7848C22.9601 28.4337 22.4447 27.5409 22.857 26.8266C23.0484 26.4952 23.402 26.291 23.7848 26.291H30.9271ZM19.1423 22.0056C15.1976 22.0054 12 25.2032 12 29.1479C12 29.5423 12.3198 29.8621 12.7142 29.8621H22.3992C20.4748 28.7975 20.4247 26.0489 22.309 24.9145C22.7544 24.6465 23.2647 24.505 23.7848 24.5054H24.5704C23.2147 22.917 21.2305 22.0034 19.1423 22.0056Z" fill="#E31A1A"/>
</svg>
