<svg width="10" height="16" viewBox="0 0 10 16" fill="none" xmlns="http://www.w3.org/2000/svg">
<path d="M2.4272 0.329604L9.016 6.5808C9.20333 6.76842 9.35162 6.9913 9.4523 7.23656C9.55298 7.48183 9.60406 7.74462 9.60257 8.00974C9.60108 8.27486 9.54706 8.53706 9.44364 8.78118C9.34021 9.0253 9.18943 9.2465 9 9.432L2.44 15.6672C2.2051 15.8689 1.90172 15.9727 1.59249 15.9572C1.28325 15.9417 0.991782 15.8081 0.77825 15.5838C0.564717 15.3596 0.445428 15.062 0.445009 14.7524C0.444591 14.4428 0.563075 14.1448 0.776001 13.92L6.712 8.2832C6.75142 8.24597 6.78282 8.20107 6.80428 8.15128C6.82574 8.10148 6.8368 8.04783 6.8368 7.9936C6.8368 7.93938 6.82574 7.88573 6.80428 7.83593C6.78282 7.78613 6.75142 7.74124 6.712 7.704L0.7712 2.0688C0.657002 1.96017 0.565319 1.83012 0.501385 1.68605C0.437452 1.54199 0.402518 1.38675 0.398581 1.22919C0.394644 1.07162 0.421779 0.914829 0.478439 0.767753C0.535097 0.620678 0.620171 0.486202 0.7288 0.372005C0.837429 0.257807 0.967488 0.166124 1.11155 0.102189C1.25561 0.0382551 1.41086 0.00332201 1.56842 -0.000614769C1.72598 -0.0045525 1.88278 0.0225843 2.02985 0.079243C2.17693 0.135903 2.3114 0.220975 2.4256 0.329604L2.4272 0.329604Z" fill="#345976"/>
</svg>
