<svg width="16" height="10" viewBox="0 0 16 10" fill="none" xmlns="http://www.w3.org/2000/svg">
<path d="M15.6704 2.42714L9.4192 9.01594C9.23158 9.20327 9.0087 9.35156 8.76344 9.45224C8.51817 9.55292 8.25538 9.604 7.99026 9.60251C7.72514 9.60102 7.46294 9.547 7.21882 9.44358C6.9747 9.34015 6.7535 9.18937 6.568 8.99994L0.332797 2.43994C0.131083 2.20504 0.0272656 1.90166 0.0427781 1.59242C0.0582906 1.28319 0.191949 0.991721 0.416158 0.778189C0.640366 0.564656 0.938007 0.445367 1.24763 0.444948C1.55725 0.44453 1.85521 0.563014 2.08 0.77594L7.7168 6.71194C7.75403 6.75135 7.79893 6.78275 7.84872 6.80421C7.89852 6.82567 7.95217 6.83674 8.0064 6.83674C8.06062 6.83674 8.11427 6.82567 8.16407 6.80421C8.21387 6.78275 8.25876 6.75135 8.296 6.71194L13.9312 0.771139C14.0398 0.656941 14.1699 0.565259 14.3139 0.501325C14.458 0.437391 14.6133 0.402457 14.7708 0.39852C14.9284 0.394584 15.0852 0.421719 15.2322 0.478378C15.3793 0.535037 15.5138 0.620111 15.628 0.72874C15.7422 0.837369 15.8339 0.967427 15.8978 1.11149C15.9617 1.25555 15.9967 1.4108 16.0006 1.56836C16.0046 1.72592 15.9774 1.88272 15.9208 2.02979C15.8641 2.17687 15.779 2.31134 15.6704 2.42554V2.42714Z" fill="#345976"/>
</svg>
