<svg width="20" height="21" viewBox="0 0 20 21" fill="none" xmlns="http://www.w3.org/2000/svg">
<path d="M5.5 10.125C5.2929 10.125 5.125 9.95711 5.125 9.75C5.125 9.5429 5.2929 9.375 5.5 9.375" stroke="#9AACBB" stroke-width="2" stroke-linecap="round" stroke-linejoin="round"/>
<path d="M5.5 10.125C5.70711 10.125 5.875 9.95711 5.875 9.75C5.875 9.5429 5.70711 9.375 5.5 9.375" stroke="#9AACBB" stroke-width="2" stroke-linecap="round" stroke-linejoin="round"/>
<path d="M10 10.125C9.7929 10.125 9.625 9.95711 9.625 9.75C9.625 9.5429 9.7929 9.375 10 9.375" stroke="#9AACBB" stroke-width="2" stroke-linecap="round" stroke-linejoin="round"/>
<path d="M10 10.125C10.2071 10.125 10.375 9.95711 10.375 9.75C10.375 9.5429 10.2071 9.375 10 9.375" stroke="#9AACBB" stroke-width="2" stroke-linecap="round" stroke-linejoin="round"/>
<path d="M5.5 15.375C5.2929 15.375 5.125 15.2072 5.125 15C5.125 14.7929 5.2929 14.625 5.5 14.625" stroke="#9AACBB" stroke-width="2" stroke-linecap="round" stroke-linejoin="round"/>
<path d="M5.5 15.375C5.70711 15.375 5.875 15.2072 5.875 15C5.875 14.7929 5.70711 14.625 5.5 14.625" stroke="#9AACBB" stroke-width="2" stroke-linecap="round" stroke-linejoin="round"/>
<path d="M10 15.375C9.7929 15.375 9.625 15.2072 9.625 15C9.625 14.7929 9.7929 14.625 10 14.625" stroke="#9AACBB" stroke-width="2" stroke-linecap="round" stroke-linejoin="round"/>
<path d="M10 15.375C10.2071 15.375 10.375 15.2072 10.375 15C10.375 14.7929 10.2071 14.625 10 14.625" stroke="#9AACBB" stroke-width="2" stroke-linecap="round" stroke-linejoin="round"/>
<path d="M14.5 10.125C14.2929 10.125 14.125 9.95711 14.125 9.75C14.125 9.5429 14.2929 9.375 14.5 9.375" stroke="#9AACBB" stroke-width="2" stroke-linecap="round" stroke-linejoin="round"/>
<path d="M14.5 10.125C14.7072 10.125 14.875 9.95711 14.875 9.75C14.875 9.5429 14.7072 9.375 14.5 9.375" stroke="#9AACBB" stroke-width="2" stroke-linecap="round" stroke-linejoin="round"/>
<path d="M2.49977 3.74997C2.10193 3.74997 1.72041 3.90801 1.43909 4.1893C1.1578 4.47062 0.999756 4.85214 0.999756 5.24998V18.0001C0.999756 18.3979 1.1578 18.7795 1.43909 19.0607C1.72041 19.342 2.10193 19.5001 2.49977 19.5001H17.4999C17.8977 19.5001 18.2793 19.342 18.5605 19.0607C18.8418 18.7795 18.9999 18.3979 18.9999 18.0001V5.24998C18.9999 4.85214 18.8418 4.47062 18.5605 4.1893C18.2793 3.90801 17.8977 3.74997 17.4999 3.74997H2.49977Z" stroke="#9AACBB" stroke-width="2" stroke-linecap="round" stroke-linejoin="round"/>
<path d="M4.75 1.49993V5.99996" stroke="#9AACBB" stroke-width="2" stroke-linecap="round" stroke-linejoin="round"/>
<path d="M15.25 1.49993V5.99996" stroke="#9AACBB" stroke-width="2" stroke-linecap="round" stroke-linejoin="round"/>
</svg>
