<svg width="44" height="44" viewBox="0 0 44 44" fill="none" xmlns="http://www.w3.org/2000/svg">
<path d="M43 22C43 33.598 33.598 43 22 43C10.402 43 1 33.598 1 22C1 10.402 10.402 1 22 1C33.598 1 43 10.402 43 22Z" fill="#8FBFFA"/>
<path d="M43 22C43 33.598 33.598 43 22 43C10.402 43 1 33.598 1 22C1 10.402 10.402 1 22 1C33.598 1 43 10.402 43 22Z" fill="url(#paint0_linear_196_212)"/>
<path d="M43 22C43 33.598 33.598 43 22 43C10.402 43 1 33.598 1 22C1 10.402 10.402 1 22 1C33.598 1 43 10.402 43 22Z" stroke="white" stroke-width="2"/>
<path d="M23 20.6982V1.02339C34.1337 1.54534 43 10.7373 43 22C43 27.4396 40.933 32.3947 37.5395 36.1253L23.6276 22.2134C23.2258 21.8116 23 21.2665 23 20.6982Z" fill="white"/>
<path d="M23 20.6982V1.02339C34.1337 1.54534 43 10.7373 43 22C43 27.4396 40.933 32.3947 37.5395 36.1253L23.6276 22.2134C23.2258 21.8116 23 21.2665 23 20.6982Z" fill="url(#paint1_linear_196_212)" fill-opacity="0.4"/>
<path d="M23 20.6982V1.02339C34.1337 1.54534 43 10.7373 43 22C43 27.4396 40.933 32.3947 37.5395 36.1253L23.6276 22.2134C23.2258 21.8116 23 21.2665 23 20.6982Z" stroke="white" stroke-width="2"/>
<defs>
<linearGradient id="paint0_linear_196_212" x1="-9.07751e-07" y1="0.00161187" x2="43.9983" y2="44.0016" gradientUnits="userSpaceOnUse">
<stop stop-color="#EC0478"/>
<stop offset="1" stop-color="#FD4417"/>
</linearGradient>
<linearGradient id="paint1_linear_196_212" x1="22" y1="0.00137581" x2="54.7582" y2="19.1915" gradientUnits="userSpaceOnUse">
<stop stop-color="#EC0478"/>
<stop offset="1" stop-color="#FD4417"/>
</linearGradient>
</defs>
</svg>
