<svg width="32" height="32" viewBox="0 0 32 32" fill="none" xmlns="http://www.w3.org/2000/svg">
<path d="M1.99973 16.0001C1.99973 19.7132 3.47474 23.2742 6.10027 25.8997C8.72581 28.5253 12.2868 30.0003 15.9999 30.0003C19.7129 30.0003 23.2739 28.5253 25.8995 25.8997C28.525 23.2742 30 19.7132 30 16.0001C30 12.2871 28.525 8.72608 25.8995 6.10055C23.2739 3.47501 19.7129 2 15.9999 2C12.2868 2 8.72581 3.47501 6.10027 6.10055C3.47474 8.72608 1.99973 12.2871 1.99973 16.0001Z" stroke="#345976" stroke-width="3" stroke-linecap="round" stroke-linejoin="round"/>
<path d="M9.53827 16.0002C9.53827 16.8487 9.7054 17.689 10.0301 18.4729C10.3549 19.2569 10.8308 19.9692 11.4308 20.5692C12.0308 21.1692 12.7432 21.6452 13.5271 21.9699C14.3111 22.2946 15.1513 22.4618 15.9999 22.4618C16.8484 22.4618 17.6887 22.2946 18.4726 21.9699C19.2566 21.6452 19.9689 21.1692 20.5689 20.5692C21.1689 19.9692 21.6449 19.2569 21.9696 18.4729C22.2943 17.689 22.4615 16.8487 22.4615 16.0002C22.4615 15.1516 22.2943 14.3114 21.9696 13.5274C21.6449 12.7435 21.1689 12.0311 20.5689 11.4311C19.9689 10.8311 19.2566 10.3552 18.4726 10.0304C17.6887 9.70571 16.8484 9.53857 15.9999 9.53857C15.1513 9.53857 14.3111 9.70571 13.5271 10.0304C12.7432 10.3552 12.0308 10.8311 11.4308 11.4311C10.8308 12.0311 10.3549 12.7435 10.0301 13.5274C9.7054 14.3114 9.53827 15.1516 9.53827 16.0002Z" stroke="#345976" stroke-width="3" stroke-linecap="round" stroke-linejoin="round"/>
<path d="M16 2V9.53854" stroke="#345976" stroke-width="3" stroke-linecap="round" stroke-linejoin="round"/>
<path d="M29.5231 12.3768L22.2429 14.3275" stroke="#345976" stroke-width="3" stroke-linecap="round" stroke-linejoin="round"/>
</svg>
