<svg width="32" height="32" viewBox="0 0 32 32" fill="none" xmlns="http://www.w3.org/2000/svg">
<path d="M16 30C23.7321 30 30 23.7321 30 16C30 8.26802 23.7321 2 16 2C8.26802 2 2 8.26802 2 16C2 23.7321 8.26802 30 16 30Z" stroke="#345976" stroke-width="3" stroke-linecap="round" stroke-linejoin="round"/>
<path d="M3.07693 21.3845H6.84617C7.84583 21.3845 8.80455 20.9874 9.51142 20.2805C10.2183 19.5737 10.6154 18.6149 10.6154 17.6153V14.3845C10.6154 13.3848 11.0125 12.4261 11.7194 11.7192C12.4262 11.0124 13.385 10.6153 14.3846 10.6153C15.3843 10.6153 16.343 10.2181 17.0499 9.51128C17.7568 8.80441 18.1539 7.84571 18.1539 6.84604V2.15065" stroke="#345976" stroke-width="3" stroke-linecap="round" stroke-linejoin="round"/>
<path d="M30 15.7846C28.9216 15.2251 27.7257 14.9298 26.5108 14.9231H21.9231C20.9234 14.9231 19.9647 15.3202 19.2578 16.0271C18.5509 16.7339 18.1538 17.6926 18.1538 18.6923C18.1538 19.692 18.5509 20.6507 19.2578 21.3576C19.9647 22.0644 20.9234 22.4615 21.9231 22.4615C22.6371 22.4615 23.322 22.7452 23.8269 23.2501C24.3317 23.7549 24.6154 24.4399 24.6154 25.1539V27.0277" stroke="#345976" stroke-width="3" stroke-linecap="round" stroke-linejoin="round"/>
</svg>
