<svg width="28" height="32" viewBox="0 0 28 32" fill="none" xmlns="http://www.w3.org/2000/svg">
<path d="M4.30769 23.215C2.9507 23.9156 2.15384 24.7703 2.15384 25.6923C2.15384 28.0715 7.45753 30 14 30C20.5425 30 25.8461 28.0715 25.8461 25.6923C25.8461 24.7703 25.0492 23.9156 23.6923 23.215" stroke="#345976" stroke-width="3" stroke-linecap="round" stroke-linejoin="round"/>
<path d="M23.6923 11.6923C23.6923 18.2177 16.8335 23.1292 14.99 24.3315C14.6947 24.5241 14.3525 24.6154 14 24.6154C13.6474 24.6154 13.3053 24.5241 13.01 24.3315C11.1665 23.1292 4.30768 18.2177 4.30768 11.6923C4.30768 6.3394 8.64707 2 14 2C19.3529 2 23.6923 6.3394 23.6923 11.6923Z" stroke="#345976" stroke-width="3" stroke-linecap="round" stroke-linejoin="round"/>
<path d="M10.2308 11.1538C10.2308 12.1535 10.6279 13.1122 11.3348 13.8191C12.0416 14.526 13.0003 14.9231 14 14.9231C14.9997 14.9231 15.9584 14.526 16.6653 13.8191C17.3721 13.1122 17.7692 12.1535 17.7692 11.1538C17.7692 10.1542 17.3721 9.19546 16.6653 8.4886C15.9584 7.78173 14.9997 7.38461 14 7.38461C13.0003 7.38461 12.0416 7.78173 11.3348 8.4886C10.6279 9.19546 10.2308 10.1542 10.2308 11.1538Z" stroke="#345976" stroke-width="3" stroke-linecap="round" stroke-linejoin="round"/>
</svg>
