<svg width="24" height="24" viewBox="0 0 24 24" fill="none" xmlns="http://www.w3.org/2000/svg">
<path fill-rule="evenodd" clip-rule="evenodd" d="M8.4 2.4C8.4 1.76348 8.65286 1.15303 9.10294 0.702944C9.55303 0.252856 10.1635 0 10.8 0L21.6 0C22.2365 0 22.847 0.252856 23.2971 0.702944C23.7471 1.15303 24 1.76348 24 2.4V21.6C24 22.2365 23.7471 22.847 23.2971 23.2971C22.847 23.7471 22.2365 24 21.6 24H10.8C10.1635 24 9.55303 23.7471 9.10294 23.2971C8.65286 22.847 8.4 22.2365 8.4 21.6V16.2264H14.4C15.5139 16.2264 16.5822 15.7839 17.3698 14.9962C18.1575 14.2086 18.6 13.1403 18.6 12.0264C18.6 10.9125 18.1575 9.8442 17.3698 9.05655C16.5822 8.2689 15.5139 7.8264 14.4 7.8264H8.4V2.4ZM5.976 7.0416C5.70175 6.92747 5.39979 6.89733 5.10839 6.95501C4.81699 7.01269 4.54928 7.15559 4.3392 7.3656L0.739199 10.9656C0.599869 11.1049 0.489346 11.2703 0.413939 11.4523C0.338531 11.6343 0.299721 11.8294 0.299721 12.0264C0.299721 12.2234 0.338531 12.4185 0.413939 12.6005C0.489346 12.7825 0.599869 12.9479 0.739199 13.0872L4.3392 16.6872C4.54898 16.897 4.81628 17.0399 5.10729 17.0978C5.39829 17.1557 5.69994 17.126 5.97406 17.0125C6.24819 16.8989 6.48248 16.7066 6.64729 16.4599C6.81211 16.2132 6.90005 15.9231 6.9 15.6264V13.8264H14.4C14.8774 13.8264 15.3352 13.6368 15.6728 13.2992C16.0104 12.9616 16.2 12.5038 16.2 12.0264C16.2 11.549 16.0104 11.0912 15.6728 10.7536C15.3352 10.416 14.8774 10.2264 14.4 10.2264H6.9V8.4264C6.9 7.8192 6.5376 7.2744 5.976 7.0416Z" fill="#D1585B"/>
</svg>
